<?xml version="1.0" encoding="utf-8"?>
<svg xmlns="http://www.w3.org/2000/svg" xmlns:xlink="http://www.w3.org/1999/xlink" version="1.1" id="Ebene_1" x="0px" y="0px" viewBox="0 0 132.57 28" style="enable-background:new 0 0 132.57 28;" xml:space="preserve" width="158" height="33">
<style type="text/css">
	.st0{clip-path:url(#SVGID_2_);fill:#C5073D;}
	.st1{clip-path:url(#SVGID_4_);fill:#C5073D;}
	.st2{clip-path:url(#SVGID_6_);fill:#C5073D;}
	.st3{clip-path:url(#SVGID_8_);fill:#C5073D;}
	.st4{clip-path:url(#SVGID_10_);fill:#C5073D;}
	.st5{fill:#C5073D;}
	.st6{clip-path:url(#SVGID_12_);fill:#C5073D;}
	.st7{clip-path:url(#SVGID_14_);fill:#C5073D;}
	.st8{clip-path:url(#SVGID_16_);fill:#C5073D;}
	.st9{clip-path:url(#SVGID_18_);fill:#C5073D;}
	.st10{clip-path:url(#SVGID_20_);fill:#C5073D;}
</style>
<g>
	<g>
		<defs>
			<path id="SVGID_1_" d="M62.47,13.4c-0.1,3.6,3.5,4.8,6.3,5c2.1,0.1,2.9,0.7,2.8,1.4c0,0.8-1.3,1.6-2.6,1.5     c-1.6-0.1-3.4-0.4-5.2-2l-2.1,2.9c2.6,2.2,4.9,2.6,7.2,2.7c4.8,0.1,6.7-2.5,6.8-4.9c0.1-4-3.6-4.9-6.5-5     c-1.5-0.1-2.5-0.5-2.5-1.4c0-0.7,1-1.5,2.5-1.5c1.4,0,2.7,0.4,3.8,1.2l2-2.6c-1.3-1.2-3.7-2-5.8-2     C65.87,8.5,62.57,9.9,62.47,13.4"/>
		</defs>
		<clipPath id="SVGID_2_">
			<use xlink:href="#SVGID_1_" style="overflow:visible;"/>
		</clipPath>
		<rect x="56.77" y="3.5" class="st0" width="23.9" height="26.2"/>
	</g>
</g>
<g>
	<g>
		<defs>
			<path id="SVGID_3_" d="M42.37,12.1c2.4,0,3.7,1.5,3.7,2.9h-7.2C38.87,13.7,40.17,12.1,42.37,12.1 M34.57,16.5     c0,4.6,2.9,8.2,8.3,8.2c2.2,0,4.4-0.7,6.3-2.3l-2.3-2.7c-1,0.9-2.7,1.4-3.9,1.4c-2.4,0-4-1.5-4.2-3.2h11.1     c0.9-6.3-2.4-9.5-7.4-9.5C37.57,8.5,34.57,12,34.57,16.5"/>
		</defs>
		<clipPath id="SVGID_4_">
			<use xlink:href="#SVGID_3_" style="overflow:visible;"/>
		</clipPath>
		<rect x="29.57" y="3.5" class="st1" width="25.4" height="26.2"/>
	</g>
</g>
<g>
	<g>
		<defs>
			<path id="SVGID_5_" d="M98.77,16.6c0-2.1,1.1-4.3,3.7-4.3c2.6,0,3.7,2.2,3.7,4.3c0,2.2-1.1,4.3-3.7,4.3     C99.87,20.9,98.77,18.7,98.77,16.6 M94.37,16.6c0,5.2,3.6,8.1,8,8.1s8-3.2,8-8.1c0-5.2-3.6-8.1-8-8.1     C97.97,8.5,94.37,11.4,94.37,16.6"/>
		</defs>
		<clipPath id="SVGID_6_">
			<use xlink:href="#SVGID_5_" style="overflow:visible;"/>
		</clipPath>
		<rect x="89.37" y="3.5" class="st2" width="26.1" height="26.2"/>
	</g>
</g>
<g>
	<g>
		<defs>
			<path id="SVGID_7_" d="M56.27,10.9l-0.8-2.1h-3.4v15.6h4.4v-8.1c0-2.3,1.4-3.7,3.3-3.7c0.2,0,0.5,0.1,0.7,0.1l1.8-3.7     c-0.6-0.3-1.3-0.5-2-0.5C58.87,8.5,57.27,9.5,56.27,10.9"/>
		</defs>
		<clipPath id="SVGID_8_">
			<use xlink:href="#SVGID_7_" style="overflow:visible;"/>
		</clipPath>
		<rect x="47.07" y="3.5" class="st3" width="20.3" height="25.9"/>
	</g>
</g>
<g>
	<g>
		<defs>
			<path id="SVGID_9_" d="M25.47,6.1v12.7c0,4.6,2.2,5.9,5.2,5.9c1.4,0,2.3-0.3,3.9-1.1l-1.5-3c-0.5,0.2-1.2,0.4-1.6,0.4     c-0.8,0-1.6-0.3-1.6-2.3v-6.2h3.5V8.8h-3.5V5L25.47,6.1z"/>
		</defs>
		<clipPath id="SVGID_10_">
			<use xlink:href="#SVGID_9_" style="overflow:visible;"/>
		</clipPath>
		<rect x="20.47" y="0" class="st4" width="19.1" height="29.7"/>
	</g>
</g>
<rect x="0.27" y="8.8" class="st5" width="4.5" height="15.6"/>
<g>
	<g>
		<defs>
			<path id="SVGID_11_" d="M12.07,10.9l-0.7-2h-3.4v15.6h4.4v-8.3c0-2.3,1.1-3.7,3.1-3.7c2.1,0,2.9,1.3,2.9,3.7v8.3h4.4v-8.3     c0-6-3-7.7-6.3-7.7C14.77,8.5,13.17,9.1,12.07,10.9"/>
		</defs>
		<clipPath id="SVGID_12_">
			<use xlink:href="#SVGID_11_" style="overflow:visible;"/>
		</clipPath>
		<rect x="2.97" y="3.5" class="st6" width="24.8" height="25.9"/>
	</g>
</g>
<g>
	<g>
		<defs>
			<path id="SVGID_13_" d="M77.57,4.7v19.7h4.4v-8.3c0-2.3,1.1-3.7,3.1-3.7c2.1,0,2.9,1.3,2.9,3.7v8.3h4.4v-8.3c0-6-3-7.7-6.3-7.7     c-1.5,0-3.5,1-4.1,2.3v-6H77.57z"/>
		</defs>
		<clipPath id="SVGID_14_">
			<use xlink:href="#SVGID_13_" style="overflow:visible;"/>
		</clipPath>
		<rect x="72.57" y="-0.3" class="st7" width="24.8" height="29.7"/>
	</g>
</g>
<g>
	<g>
		<defs>
			<path id="SVGID_15_" d="M116.77,16.5c0-2,1.1-4.2,3.7-4.2c2.6,0,3.7,2.2,3.7,4.2c0,2.1-1.1,4.2-3.7,4.2S116.77,18.6,116.77,16.5      M116.47,10.4l-0.5-1.6h-3.4v18.7h4.4V23c1.1,0.9,2.5,1.5,4,1.5c4.4,0,7.4-3.1,7.4-8c0-5.1-3-7.9-7.4-7.9     C119.17,8.6,117.67,9.3,116.47,10.4"/>
		</defs>
		<clipPath id="SVGID_16_">
			<use xlink:href="#SVGID_15_" style="overflow:visible;"/>
		</clipPath>
		<rect x="107.57" y="3.6" class="st8" width="25.8" height="29"/>
	</g>
</g>
<g>
	<g>
		<defs>
			<path id="SVGID_17_" d="M128.17,7.5c0-1.1,0.7-1.9,1.9-1.9s1.9,0.8,1.9,1.9s-0.7,1.9-1.9,1.9C128.77,9.4,128.17,8.6,128.17,7.5      M127.87,7.5c0,1.2,0.8,2.2,2.1,2.2c1.4,0,2.1-1,2.1-2.2c0-1.1-0.8-2.2-2.1-2.2C128.67,5.4,127.87,6.4,127.87,7.5"/>
		</defs>
		<clipPath id="SVGID_18_">
			<use xlink:href="#SVGID_17_" style="overflow:visible;"/>
		</clipPath>
		<rect x="122.87" y="0.4" class="st9" width="14.3" height="14.3"/>
	</g>
</g>
<g>
	<g>
		<defs>
			<path id="SVGID_19_" d="M129.47,6.5h0.5c0.5,0,0.7,0.1,0.7,0.4c0,0.4-0.5,0.5-0.7,0.5h-0.5V6.5z M130.07,6.2h-0.9v2.5h0.3v-1h0.6     l0,0l0.6,1h0.4l-0.6-1.1c0.4-0.1,0.6-0.4,0.6-0.7c0-0.2-0.1-0.4-0.2-0.5C130.67,6.3,130.37,6.2,130.07,6.2L130.07,6.2z"/>
		</defs>
		<clipPath id="SVGID_20_">
			<use xlink:href="#SVGID_19_" style="overflow:visible;"/>
		</clipPath>
		<rect x="124.17" y="1.2" class="st10" width="11.9" height="12.5"/>
	</g>
</g>
</svg>
